# xmcd CD database file
#
# Track frame offsets:
#	150
#	18713
#	31100
#	44937
#	62025
#	84400
#	105763
#	128662
#	160625
#	184513
#	203675
#	226863
#	254563
#	271183
#	294225
#
# Disc length: 4205 seconds
#
# Revision: 4
# Processed by: cddbd v1.5PL3 Copyright (c) Steve Scherf et al.
# Submitted via: CDex 1.50Beta7
#
DISCID=be106b0f
DTITLE=THE BOOM - THE BOOM (STAR BOX EXTRA)
DYEAR=1900
DGENRE=Pop
TTITLE0=星のラブレター
TTITLE1=都市バス
TTITLE2=気球に乗って
TTITLE3=釣りに行こう
TTITLE4=中央線
TTITLE5=からたち野道
TTITLE6=島唄(オリジナル・バージョン)
TTITLE7=そばにいたい
TTITLE8=月さえも眠る夜
TTITLE9=真夏の奇蹟
TTITLE10=帰ろうかな
TTITLE11=berangkat - ブランカー
TTITLE12=風になりたい
TTITLE13=手紙
TTITLE14=時がたてば
EXTD=
EXTT0=
EXTT1=
EXTT2=
EXTT3=
EXTT4=
EXTT5=
EXTT6=
EXTT7=
EXTT8=
EXTT9=
EXTT10=
EXTT11=
EXTT12=
EXTT13=
EXTT14=
PLAYORDER=
